<?xml version="1.0" encoding="UTF-8"?>
<!-- Created with Inkscape (http://www.inkscape.org/) -->
<svg id="svg8" width="35" height="35" version="1.1" viewBox="0 0 9.2604 9.2604" xmlns="http://www.w3.org/2000/svg" xmlns:cc="http://creativecommons.org/ns#" xmlns:dc="http://purl.org/dc/elements/1.1/" xmlns:rdf="http://www.w3.org/1999/02/22-rdf-syntax-ns#">
 <metadata id="metadata5">
  <rdf:RDF>
   <cc:Work rdf:about="">
    <dc:format>image/svg+xml</dc:format>
    <dc:type rdf:resource="http://purl.org/dc/dcmitype/StillImage"/>
    <dc:title/>
   </cc:Work>
  </rdf:RDF>
 </metadata>
 <g id="layer1" transform="translate(0 -287.74)">
  <rect id="rect4518" x=".00068881" y="287.74" width="9.261" height="9.2637" fill="#e1e1e1" stroke-width=".10071"/>
  <path id="path4522" d="m8.7987 288.2 0.46305-0.46318v9.2637h-9.261s0.46305-0.46321 0.46305-0.46321z" fill-opacity=".31373" stroke-opacity="0"/>
  <rect id="rect4520" x="1.1578" y="288.9" width="6.9463" height="6.9493" fill="#bebebe" stroke-width=".14771"/>
  <ellipse id="path825" cx="4.6381" cy="292.36" rx="3.0245" ry="3.0245" fill="#ff0" stroke="#ff0" stroke-width=".30104"/>
  <path id="path957" transform="matrix(1.1202 .086009 -.064321 1.3984 18.26 -117.47)" d="m3.6521 293.9c0.34567 9e-3 0.69108 0.0181 1.0937-0.0322 0.40267-0.0504 0.86241-0.16016 1.3218-0.26985" fill="none" stroke="#1a1a1a" stroke-width=".26458px"/>
  <path id="path930-7" d="m6.7705 290.65a0.95994 1.6553 0 0 1-0.47997 1.4335 0.95994 1.6553 0 0 1-0.95994 0 0.95994 1.6553 0 0 1-0.47997-1.4335h0.95994z" fill="#1a1a1a" stroke="#ff0" stroke-width=".46137"/>
  <path id="path930-7-3" d="m4.5273 290.65a0.95994 1.6553 0 0 1-0.47997 1.4335 0.95994 1.6553 0 0 1-0.95994 0 0.95994 1.6553 0 0 1-0.47997-1.4335h0.95994z" fill="#1a1a1a" stroke="#ff0" stroke-width=".46137"/>
  <rect id="rect33" x="4.151" y="291.02" width="1.1868" height=".0058465" fill="#1a1a1a" stroke="#1a1a1a" stroke-width=".26458"/>
 </g>
</svg>
